# xmcd CD database file
#
# Track frame offsets:
#	180
#	11655
#	19034
#	31825
#	40345
#	57810
#	63138
#	85662
#	89766
#	102762
#	110691
#	128250
#	133272
#	151799
#	163844
#	179591
#	186957
#	213996
#	215256
#	238498
#	241221
#	254785
#	256936
#	284204
#	287178
#	305990
#
# Disc length: 4234 seconds
#
# Revision: 4
# Processed by: cddbd v1.5.2PL0 Copyright (c) Steve Scherf et al.
# Submitted via: CDex 1.70beta2
#
DISCID=8410881a
DTITLE=Various Artist - Jazz For Lovers Only
DYEAR=2002
DGENRE=Jazz
TTITLE0=Metropolitan Orkest - Music All In Theme
TTITLE1=Interlude
TTITLE2=BBC Big Band - Hot Toddy
TTITLE3=Interlude
TTITLE4=Kai Winding - If I Didn't Care
TTITLE5=Interlude
TTITLE6=Stephane Grappelli and Phil Woods - Don't Blame Me
TTITLE7=Interlude
TTITLE8=BBC Big Band - What Is This Thing Called Love
TTITLE9=Interlude
TTITLE10=Sonny Stitt - Old Folks
TTITLE11=Interlude
TTITLE12=Ahmad Jamal - The Good Life
TTITLE13=Interlude
TTITLE14=BBC Big Band - Solitude
TTITLE15=Interlude
TTITLE16=Woody Herman - Body and Soul
TTITLE17=Interlude
TTITLE18=McCoy Tyner - What's New
TTITLE19=Interlude
TTITLE20=BBC Big Band - Skyliner
TTITLE21=Interlude
TTITLE22=Gerry Mulligan - Line For Lyons
TTITLE23=Interlude
TTITLE24=Bill Doggett - Wish You Love
TTITLE25=Metropole Orkest - Music All In Theme
EXTD=YEAR: 2002
EXTT0=
EXTT1=
EXTT2=
EXTT3=
EXTT4=
EXTT5=
EXTT6=
EXTT7=
EXTT8=
EXTT9=
EXTT10=
EXTT11=
EXTT12=
EXTT13=
EXTT14=
EXTT15=
EXTT16=
EXTT17=
EXTT18=
EXTT19=
EXTT20=
EXTT21=
EXTT22=
EXTT23=
EXTT24=
EXTT25=
PLAYORDER=
